# xmcd CD database file
#
# Track frame offsets:
#	150
#	24091
#	51561
#	70817
#	87813
#	101866
#	117012
#	144526
#	173558
#	191665
#	202814
#	214637
#	230635
#	249543
#	270964
#	284020
#	296479
#	304161
#	315316
#	329261
#
# Disc length: 4531 seconds
#
# Revision: 0
# Processed by: cddbd v1.5.2PL0 Copyright (c) Steve Scherf et al.
# Submitted via: CDex 1.70beta2
#
DISCID=1f11b114
DTITLE=Victor e Leo - ao vivo em Barretos
DYEAR=2008
DGENRE=Country
TTITLE0=Milonga para as Missoes
TTITLE1=Fada
TTITLE2=Nada es Normal
TTITLE3=Vida Boa
TTITLE4=Arapuca
TTITLE5=Borboletas
TTITLE6=60 dias Apaixonado
TTITLE7=Telefone Mudo
TTITLE8=Pagode em Brasilia
TTITLE9=Cavalo Preto
TTITLE10=Sem Voce
TTITLE11=Lembrancas de Amor
TTITLE12=Sinto Falta de Voce
TTITLE13=Quem de nos dois
TTITLE14=Fotos
TTITLE15=Cuidador do Fogo
TTITLE16=Ela nao vai mais chorar
TTITLE17=Chuva de Bruxaria
TTITLE18=Tem que ser voce
TTITLE19=Encerramento
EXTD=YEAR: 2008
EXTT0=
EXTT1=
EXTT2=
EXTT3=
EXTT4=
EXTT5=
EXTT6=
EXTT7=
EXTT8=
EXTT9=
EXTT10=
EXTT11=
EXTT12=
EXTT13=
EXTT14=
EXTT15=
EXTT16=
EXTT17=
EXTT18=
EXTT19=
PLAYORDER=
